# xmcd
#
# Track frame offsets:
#	180
#	9572
#	27063
#	50414
#	61504
#	74799
#	88026
#	102076
#	118416
#	136435
#
# Disc length: 1976 seconds
#
# Revision: 0
# Processed by: cddbd v1.5.2PL0 Copyright (c) Steve Scherf et al.
# Submitted via: EasyCDDAExtractor 10.2.0.1
#
DISCID=8607b60a
DTITLE=Higher Ground - From The Heart
DYEAR=1997
DGENRE=Gospel
TTITLE0=Jesus Spoke To Me
TTITLE1=I See God
TTITLE2=Standing In The Gap
TTITLE3=I'm Gonna Make It
TTITLE4=I Wasn't There
TTITLE5=Tour Guide
TTITLE6=Knocking At The Door
TTITLE7=How Beautiful Heaven Must Be
TTITLE8=Harbor Lights
TTITLE9=You Can't Be Lukewarm
EXTD=
EXTT0=
EXTT1=
EXTT2=
EXTT3=
EXTT4=
EXTT5=
EXTT6=
EXTT7=
EXTT8=
EXTT9=
PLAYORDER=
